<svg width="237" height="92" viewBox="0 0 237 92" fill="none" xmlns="http://www.w3.org/2000/svg">
<circle cx="39.9801" cy="77.8561" r="12.6253" fill="black"/>
<path d="M39.9801 59.9702L49.0916 69.4391H30.8686L39.9801 59.9702Z" fill="black"/>
<ellipse cx="16.3077" cy="59.4442" rx="12.0992" ry="3.68238" fill="black"/>
<ellipse cx="63.6526" cy="59.4442" rx="12.0992" ry="3.68238" fill="black"/>
<ellipse cx="39.4541" cy="24.7245" rx="7.89081" ry="24.7245" fill="#83A573"/>
<path d="M51.2806 52.2269L53.3119 45.2011L58.3064 50.1956L51.2806 52.2269Z" fill="black"/>
<path d="M76.1962 27.1905L74.2588 34.3102L69.0765 29.1279L76.1962 27.1905Z" fill="black"/>
<ellipse cx="63.805" cy="39.6629" rx="5.91712" ry="14.2491" transform="rotate(-135 63.805 39.6629)" fill="black"/>
<path d="M28.0284 52.106L21.0026 50.0748L25.9972 45.0802L28.0284 52.106Z" fill="black"/>
<path d="M2.992 27.1904L10.1117 29.1278L4.92937 34.3101L2.992 27.1904Z" fill="black"/>
<ellipse cx="15.4645" cy="39.5816" rx="5.91712" ry="14.2491" transform="rotate(135 15.4645 39.5816)" fill="black"/>
<path d="M114.962 53.2842C114.327 53.2842 114.01 52.7486 114.01 51.6776C114.01 48.9405 115.795 43.8035 119.365 36.2666C116.072 35.5922 114.426 34.66 114.426 33.47C114.426 32.6766 114.922 32.0221 115.914 31.5064C116.786 31.07 117.639 30.8519 118.472 30.8519C118.909 30.8519 119.127 30.9907 119.127 31.2684C119.127 31.427 118.988 31.5659 118.71 31.6849C118.472 31.8039 118.135 31.9031 117.699 31.9824C117.302 32.0617 116.945 32.2006 116.628 32.3989C116.35 32.5576 116.211 32.7758 116.211 33.0534C116.211 33.7278 117.441 34.4022 119.9 35.0765C120.654 33.4898 121.388 31.9824 122.102 30.5544C122.856 29.1263 123.609 27.7578 124.363 26.4487C124.403 26.3694 124.621 25.9727 125.018 25.2587C125.454 24.5446 125.91 23.8504 126.386 23.1761C126.981 22.3431 127.993 21.9265 129.421 21.9265C129.976 21.9265 130.254 22.0654 130.254 22.3431C130.254 22.3827 130.214 22.5216 130.135 22.7596C127.279 26.6074 124.601 30.8519 122.102 35.493C123.014 35.612 123.887 35.6715 124.72 35.6715C128.052 35.6715 131.325 34.9377 134.538 33.47C138.306 31.7642 140.667 29.5626 141.619 26.8652C141.738 26.5479 141.817 26.2305 141.857 25.9132C141.896 25.5958 141.916 25.2983 141.916 25.0207C141.916 22.3629 140.171 20.7167 136.68 20.082C134.26 19.606 131.523 19.368 128.469 19.368C125.176 19.368 121.904 19.6655 118.651 20.2605C115.438 20.8158 112.244 21.6687 109.071 22.8191C108.912 22.8587 108.774 22.8984 108.655 22.9381C108.575 22.9381 108.496 22.9381 108.417 22.9381C108.139 22.9381 108 22.8191 108 22.5811C108 22.1051 108.337 21.5695 109.012 20.9745C109.567 20.4192 110.122 20.0621 110.678 19.9035C115.041 18.4754 120.119 17.7614 125.91 17.7614C130.036 17.7614 134.002 18.1779 137.811 19.0109C142.293 20.0423 144.534 22.1844 144.534 25.4372C144.534 26.3892 144.257 27.4602 143.701 28.6503C142.432 31.2287 140.012 33.3113 136.442 34.898C133.388 36.2467 130.214 36.9211 126.922 36.9211C126.049 36.9211 125.156 36.9012 124.244 36.8616C123.332 36.7822 122.419 36.7029 121.507 36.6236C117.501 44.2002 115.497 49.1785 115.497 51.5586C115.497 51.7569 115.517 51.9156 115.557 52.0346C115.596 52.1139 115.616 52.1933 115.616 52.2726C115.616 52.352 115.616 52.4115 115.616 52.4511C115.616 53.0065 115.398 53.2842 114.962 53.2842ZM146.022 33.827C145.07 33.827 144.594 33.3509 144.594 32.3989C144.594 31.9229 144.772 31.5064 145.129 31.1494C145.526 30.7527 145.982 30.5544 146.498 30.5544C147.45 30.5544 147.926 31.0304 147.926 31.9824C147.926 32.4584 147.747 32.8749 147.39 33.2319C146.994 33.6286 146.538 33.827 146.022 33.827ZM142.571 50.0115C140.389 50.0115 139.298 48.8413 139.298 46.5009C139.298 45.3902 139.695 43.7638 140.488 41.6217C140.845 40.63 141.202 39.797 141.559 39.1227C141.956 38.4086 142.353 37.7541 142.749 37.1591C142.987 36.8021 143.265 36.6236 143.582 36.6236C143.9 36.6236 144.217 36.7822 144.534 37.0996C144.733 37.2979 144.832 37.5558 144.832 37.8731C144.832 38.1508 144.752 38.4285 144.594 38.7061C143.721 40.0549 143.007 41.4234 142.452 42.8118C141.896 44.1605 141.619 45.3704 141.619 46.4414C141.619 47.8695 142.134 48.5835 143.166 48.5835C143.721 48.5835 144.356 48.4446 145.07 48.167C145.784 47.8496 146.498 47.3736 147.212 46.7389C147.688 46.3026 148.184 45.8067 148.699 45.2514C149.255 44.696 149.81 44.0415 150.365 43.2878C151.397 42.0184 151.913 41.3837 151.913 41.3837C152.111 41.3837 152.21 41.5424 152.21 41.8597C152.21 42.1771 152.071 42.4944 151.794 42.8118C148.184 47.6116 145.109 50.0115 142.571 50.0115ZM155.644 31.1494C154.692 31.1494 154.216 30.6734 154.216 29.7213C154.216 29.2453 154.394 28.8288 154.751 28.4718C155.148 28.0751 155.584 27.8768 156.06 27.8768C157.013 27.8768 157.489 28.3528 157.489 29.3048C157.489 29.7808 157.31 30.1973 156.953 30.5544C156.556 30.951 156.12 31.1494 155.644 31.1494ZM133.033 73.1578C131.169 73.1578 129.661 72.662 128.511 71.6703C127.321 70.6389 126.726 69.2307 126.726 67.4456C126.726 63.2012 129.939 59.0559 136.365 55.0097C141.8 51.5983 146.957 49.5157 151.836 48.762C152.114 48.0083 152.391 46.8976 152.669 45.4299C152.947 43.9225 153.224 42.3159 153.502 40.6102C153.145 41.2052 152.748 41.8002 152.312 42.3953C151.876 42.9903 151.499 43.4861 151.181 43.8828C150.864 44.2002 150.626 44.3588 150.467 44.3588C150.269 44.3588 150.17 44.2597 150.17 44.0613C150.17 43.863 150.249 43.6646 150.408 43.4663C151.36 42.1573 152.133 40.9077 152.728 39.7177C153.363 38.488 153.76 37.3773 153.918 36.3856C154.037 35.6319 154.613 35.255 155.644 35.255C156.318 35.255 156.656 35.4732 156.656 35.9095C156.656 36.8219 156.418 38.5078 155.941 40.9672C155.664 42.3953 155.346 43.7241 154.989 44.9539C154.672 46.1439 154.355 47.3934 154.037 48.7025C154.315 48.7025 154.652 48.7223 155.049 48.762C155.485 48.8017 155.862 48.8612 156.179 48.9405C157.092 49.1388 157.548 49.4363 157.548 49.833C157.548 50.1107 157.409 50.2495 157.132 50.2495C157.052 50.2495 156.933 50.2099 156.775 50.1305C156.378 49.9322 155.763 49.833 154.93 49.833C154.771 49.833 154.593 49.833 154.394 49.833C154.236 49.833 154.077 49.8529 153.918 49.8925C153.006 52.8676 151.995 55.4857 150.884 57.7468C149.813 60.0079 148.643 62.0111 147.373 63.7565C142.653 70.0241 137.873 73.1578 133.033 73.1578ZM133.331 72.3248C135.79 72.3248 138.289 71.2935 140.828 69.2307C141.82 68.4374 142.792 67.4655 143.744 66.3151C144.696 65.2044 145.529 64.0937 146.243 62.983C148.583 59.3732 150.408 54.9899 151.717 49.833C150.368 50.0314 148.92 50.4082 147.373 50.9636C145.786 51.5189 144.041 52.2726 142.137 53.2246C140.273 54.137 138.607 55.0494 137.139 55.9617C135.671 56.8741 134.441 57.7865 133.45 58.6988C130.078 61.7136 128.392 64.6887 128.392 67.6242C128.392 69.0919 128.848 70.2422 129.761 71.0753C130.673 71.9083 131.863 72.3248 133.331 72.3248ZM160.714 49.1785C159.484 49.1785 158.869 48.5041 158.869 47.1554C158.869 45.1324 159.861 42.6531 161.844 39.7177C163.788 36.8219 165.712 35.0368 167.616 34.3625C167.973 34.2435 168.31 34.1443 168.628 34.065C168.945 33.9856 169.262 33.946 169.58 33.946C171.008 33.946 172.039 34.4418 172.674 35.4335C172.793 35.5922 172.852 35.731 172.852 35.85C172.852 35.9294 172.713 35.9889 172.436 36.0285C172.198 36.0682 171.999 36.2071 171.841 36.4451C170.889 37.9921 170.413 40.3127 170.413 43.4068C170.413 46.2629 171.027 47.691 172.257 47.691C173.09 47.691 174.3 46.8183 175.887 45.0729C176.125 44.8349 176.462 44.4183 176.898 43.8233C177.335 43.2283 177.771 42.6333 178.207 42.0383C178.644 41.4036 178.941 40.9871 179.1 40.7887C179.219 40.6697 179.318 40.6102 179.397 40.6102C179.556 40.6102 179.635 40.749 179.635 41.0267C179.635 41.2251 179.516 41.5027 179.278 41.8597C178.406 43.2481 177.414 44.5968 176.303 45.9059C175.193 47.2149 174.241 48.0678 173.447 48.4645C172.733 48.8215 172.019 49 171.305 49C168.885 49 167.675 47.2943 167.675 43.8828C167.675 43.6051 167.675 43.3275 167.675 43.0498C167.715 42.7324 167.755 42.4151 167.794 42.0978C165.097 46.8183 162.737 49.1785 160.714 49.1785ZM161.725 47.3934C162.162 47.3934 162.677 47.1554 163.272 46.6794C163.867 46.1637 164.482 45.4894 165.117 44.6563C166.069 43.387 166.961 42.0383 167.794 40.6102C168.628 39.1822 169.361 37.6351 169.996 35.969C169.877 35.9294 169.699 35.9095 169.461 35.9095C167.834 35.9095 166.188 36.9211 164.522 38.9441C162.102 41.8399 160.892 44.2398 160.892 46.1439C160.892 46.9769 161.17 47.3934 161.725 47.3934ZM176.602 49.238C176.284 49.238 176.126 48.881 176.126 48.167C176.126 47.929 176.146 47.7703 176.185 47.691C176.622 46.6199 177.078 45.3307 177.554 43.8233C178.03 42.3159 178.506 40.5904 178.982 38.6466C179.021 38.369 179.061 38.0913 179.101 37.8136C179.18 37.5359 179.299 37.0202 179.458 36.2666C179.497 36.1872 179.577 36.0682 179.696 35.9095C179.815 35.7509 179.993 35.5922 180.231 35.4335C180.668 35.1558 181.064 35.017 181.421 35.017C181.699 35.017 181.838 35.136 181.838 35.374C181.838 35.5724 181.6 36.4252 181.124 37.9326C180.648 39.44 179.954 41.6019 179.041 44.4183L185.587 35.6715C186.142 34.9575 186.757 34.6005 187.431 34.6005C188.066 34.6005 188.383 34.9575 188.383 35.6715C188.383 35.9492 188.343 36.3459 188.264 36.8616C188.224 37.3376 188.125 37.9524 187.967 38.7061C187.808 39.4598 187.649 40.4119 187.491 41.5622C187.372 42.6729 187.213 43.9622 187.015 45.4299C187.57 44.6365 188.264 43.6646 189.097 42.5143C189.97 41.3242 191.001 39.9755 192.191 38.4681C192.786 37.7144 193.421 37.3376 194.095 37.3376C194.69 37.3376 194.988 37.7144 194.988 38.4681C194.988 38.7855 194.948 39.1822 194.869 39.6582C194.829 40.0945 194.77 40.63 194.69 41.2647C194.611 41.8994 194.532 42.4548 194.452 42.9308C194.413 43.4068 194.393 43.8035 194.393 44.1208C194.393 46.1836 194.928 47.2149 195.999 47.2149C197.546 47.2149 199.47 45.5489 201.771 42.2168C202.049 41.8201 202.247 41.6217 202.366 41.6217C202.564 41.6217 202.664 41.8002 202.664 42.1573C202.664 42.2366 202.624 42.3358 202.545 42.4548C202.505 42.5341 202.505 42.5539 202.545 42.5143C202.069 43.149 201.573 43.7836 201.057 44.4183C200.541 45.053 199.927 45.7076 199.213 46.3819C197.586 47.9686 196.158 48.762 194.928 48.762C193.064 48.762 192.132 46.6993 192.132 42.5738C192.132 42.2564 192.132 41.9193 192.132 41.5622C192.132 41.2052 192.152 40.8284 192.191 40.4317C191.477 41.0664 190.684 41.9986 189.811 43.2283C188.978 44.4183 188.165 45.7671 187.372 47.2744C186.777 48.3851 186.122 48.9405 185.408 48.9405C185.17 48.9405 184.992 48.8612 184.873 48.7025C184.754 48.2661 184.694 47.7108 184.694 47.0364C184.694 46.5207 184.754 45.7274 184.873 44.6563C184.992 43.5456 185.19 42.2168 185.468 40.6697C185.587 39.9557 185.686 39.3408 185.765 38.8251C185.844 38.3095 185.884 37.9524 185.884 37.7541C185.884 37.4368 185.825 37.2781 185.706 37.2781C185.388 37.5558 184.912 38.0714 184.277 38.8251C183.682 39.5392 183.068 40.3127 182.433 41.1457C181.64 42.2168 180.787 43.387 179.874 44.6563C179.002 45.8861 178.109 47.2348 177.197 48.7025C176.959 49.0595 176.76 49.238 176.602 49.238ZM201.854 49.1785C200.624 49.1785 200.009 48.5041 200.009 47.1554C200.009 45.1324 201.001 42.6531 202.984 39.7177C204.928 36.8219 206.852 35.0368 208.756 34.3625C209.113 34.2435 209.45 34.1443 209.768 34.065C210.085 33.9856 210.402 33.946 210.72 33.946C212.148 33.946 213.179 34.4418 213.814 35.4335C213.933 35.5922 213.992 35.731 213.992 35.85C213.992 35.9294 213.853 35.9889 213.576 36.0285C213.338 36.0682 213.139 36.2071 212.981 36.4451C212.029 37.9921 211.553 40.3127 211.553 43.4068C211.553 46.2629 212.168 47.691 213.397 47.691C214.23 47.691 215.44 46.8183 217.027 45.0729C217.265 44.8349 217.602 44.4183 218.038 43.8233C218.475 43.2283 218.911 42.6333 219.347 42.0383C219.784 41.4036 220.081 40.9871 220.24 40.7887C220.359 40.6697 220.458 40.6102 220.538 40.6102C220.696 40.6102 220.776 40.749 220.776 41.0267C220.776 41.2251 220.657 41.5027 220.419 41.8597C219.546 43.2481 218.554 44.5968 217.443 45.9059C216.333 47.2149 215.381 48.0678 214.587 48.4645C213.873 48.8215 213.159 49 212.445 49C210.025 49 208.816 47.2943 208.816 43.8828C208.816 43.6051 208.816 43.3275 208.816 43.0498C208.855 42.7324 208.895 42.4151 208.935 42.0978C206.237 46.8183 203.877 49.1785 201.854 49.1785ZM202.865 47.3934C203.302 47.3934 203.817 47.1554 204.412 46.6794C205.007 46.1637 205.622 45.4894 206.257 44.6563C207.209 43.387 208.102 42.0383 208.935 40.6102C209.768 39.1822 210.501 37.6351 211.136 35.969C211.017 35.9294 210.839 35.9095 210.601 35.9095C208.974 35.9095 207.328 36.9211 205.662 38.9441C203.242 41.8399 202.032 44.2398 202.032 46.1439C202.032 46.9769 202.31 47.3934 202.865 47.3934ZM223.811 50.3685C221.947 50.3685 220.261 49.6942 218.753 48.3455C217.206 46.9571 216.433 45.3704 216.433 43.5853C216.433 42.4349 216.75 41.8597 217.385 41.8597C217.782 41.8597 218.198 42.1374 218.634 42.6928C219.19 42.2168 220.181 40.7292 221.609 38.2301C222.244 37.1591 222.938 36.0682 223.692 34.9575C224.446 33.8071 225.259 32.8551 226.132 32.1014C227.004 31.308 227.917 30.9114 228.869 30.9114C229.622 30.9114 230.257 31.0899 230.773 31.4469C231.368 31.8039 231.665 32.2402 231.665 32.7559C231.665 33.0733 231.209 33.2319 230.297 33.2319C229.424 33.2319 228.591 33.5096 227.798 34.065C227.044 34.66 226.667 35.3939 226.667 36.2666C226.667 36.5839 226.727 36.9211 226.846 37.2781L228.333 41.1457C228.651 41.8994 228.849 42.6333 228.928 43.3473C229.047 44.0217 229.107 44.6365 229.107 45.1919C231.407 44.8349 233.371 43.6646 234.997 41.6812C235.077 41.5622 235.176 41.5027 235.295 41.5027C235.533 41.5027 235.652 41.6614 235.652 41.9788C235.652 42.0581 235.632 42.1374 235.592 42.2168C235.592 42.2961 235.573 42.3754 235.533 42.4548C234.224 44.5175 232.022 45.8464 228.928 46.4414C228.809 47.0761 228.591 47.6315 228.274 48.1075C227.956 48.5835 227.58 48.9802 227.143 49.2975C226.151 50.0115 225.041 50.3685 223.811 50.3685ZM227.024 45.4894V44.8944C227.024 44.458 226.925 43.863 226.727 43.1093C226.568 42.3556 226.31 41.3837 225.953 40.1937C225.596 39.0036 225.318 37.9326 225.12 36.9806C224.961 35.9889 224.902 35.3542 224.942 35.0765C223.91 36.7426 222.879 38.3293 221.847 39.8367C220.856 41.3044 219.963 42.4944 219.17 43.4068C220.4 44.0018 221.709 44.4778 223.097 44.8349C224.485 45.1919 225.794 45.41 227.024 45.4894ZM223.038 48.7025C223.831 48.7025 224.604 48.5637 225.358 48.286C226.151 47.9686 226.687 47.4133 226.965 46.6199C225.18 46.6199 223.514 46.4414 221.966 46.0844C220.459 45.7274 219.249 45.172 218.337 44.4183L217.98 44.7754C219.051 47.3934 220.737 48.7025 223.038 48.7025Z" fill="#83A573"/>
<line x1="110.563" y1="67.4522" x2="234.492" y2="67.4522" stroke="black" stroke-width="1.22702"/>
<path d="M131.187 76.7916L133.42 76.6959C134.409 76.6959 135.212 76.9299 135.829 77.3978C136.456 77.8657 136.77 78.5091 136.77 79.3279C136.77 80.5402 135.988 81.3856 134.425 81.8641C135.297 81.8641 136.025 82.1353 136.61 82.6777C137.206 83.22 137.504 83.9165 137.504 84.7673C137.504 86.8622 136.142 87.9097 133.42 87.9097L131.49 87.814L129.576 87.9097C129.544 87.8778 129.528 87.7874 129.528 87.6385C129.528 87.479 129.56 87.3673 129.624 87.3035C130.007 87.3035 130.278 87.2397 130.437 87.1121C130.607 86.9739 130.692 86.7612 130.692 86.4741L130.772 78.1156C130.772 77.8285 130.692 77.6211 130.533 77.4935C130.373 77.3659 130.097 77.3021 129.703 77.3021C129.64 77.2489 129.608 77.1426 129.608 76.9831C129.608 76.8129 129.618 76.7172 129.64 76.6959L131.187 76.7916ZM132.654 81.7046C133.484 81.7046 134.154 81.5185 134.664 81.1463C135.185 80.7635 135.446 80.2318 135.446 79.5512C135.446 78.19 134.574 77.5094 132.83 77.5094C132.49 77.5094 132.128 77.5413 131.745 77.6052L131.937 81.7046H132.654ZM133.468 87.0164C134.244 87.0164 134.872 86.825 135.35 86.4422C135.829 86.0593 136.068 85.5063 136.068 84.7832C136.068 84.0601 135.776 83.5124 135.191 83.1402C134.606 82.7574 133.893 82.566 133.053 82.566C132.724 82.566 132.367 82.5979 131.985 82.6617L132.128 85.8201C132.149 86.288 132.256 86.607 132.447 86.7771C132.639 86.9366 132.979 87.0164 133.468 87.0164ZM144.73 86.6814C143.805 87.6066 142.954 88.0692 142.177 88.0692C141.401 88.0692 140.784 87.8405 140.327 87.3833C139.881 86.9154 139.663 86.3145 139.673 85.5808L139.689 82.2151C139.689 81.9067 139.599 81.694 139.418 81.577C139.237 81.46 138.929 81.4016 138.493 81.4016C138.461 81.3696 138.445 81.2899 138.445 81.1623C138.445 81.0347 138.477 80.923 138.541 80.8273C138.923 80.7848 139.221 80.7316 139.434 80.6678C139.657 80.5934 139.902 80.4551 140.168 80.2531C140.21 80.2212 140.317 80.2052 140.487 80.2052C140.657 80.2052 140.758 80.2212 140.79 80.2531L140.901 85.2937C140.912 85.836 141.061 86.272 141.348 86.6017C141.646 86.9207 142.055 87.0802 142.576 87.0802C142.959 87.0802 143.358 86.9207 143.773 86.6017C143.911 86.4953 144.076 86.3518 144.267 86.171C144.469 85.9902 144.591 85.8839 144.634 85.852V82.2151C144.634 81.9173 144.538 81.7099 144.347 81.593C144.166 81.4654 143.863 81.4016 143.438 81.4016C143.406 81.3696 143.39 81.2846 143.39 81.1463C143.39 80.9975 143.422 80.8911 143.485 80.8273C143.868 80.7848 144.166 80.7316 144.379 80.6678C144.602 80.5934 144.847 80.4551 145.113 80.2531C145.155 80.2212 145.261 80.2052 145.432 80.2052C145.602 80.2052 145.703 80.2212 145.735 80.2531L145.894 86.1072C145.915 86.8303 146.165 87.1919 146.644 87.1919C146.814 87.1919 147.016 87.144 147.25 87.0483C147.324 87.144 147.362 87.2876 147.362 87.479C147.362 87.596 147.229 87.7236 146.963 87.8618C146.697 88.0001 146.415 88.0692 146.117 88.0692C145.83 88.0692 145.602 88.0213 145.432 87.9256C145.272 87.8299 145.15 87.7129 145.065 87.5747C144.895 87.2982 144.783 87.0004 144.73 86.6814ZM154.395 86.9685C153.661 87.7023 152.742 88.0692 151.636 88.0692C150.54 88.0692 149.695 87.697 149.099 86.9526C148.504 86.1976 148.206 85.2458 148.206 84.0973C148.206 82.9382 148.499 81.9811 149.083 81.2261C149.679 80.4711 150.492 80.0935 151.524 80.0935C152.566 80.0935 153.332 80.4604 153.821 81.1942C154.321 81.9173 154.571 82.8531 154.571 84.0016H149.61C149.61 84.863 149.796 85.5914 150.168 86.1869C150.551 86.7718 151.093 87.0643 151.795 87.0643C152.752 87.0643 153.56 86.825 154.22 86.3464C154.262 86.3783 154.315 86.4528 154.379 86.5698C154.443 86.6867 154.475 86.7718 154.475 86.825C154.475 86.8675 154.448 86.9154 154.395 86.9685ZM149.626 83.1721L151.875 83.1881C152.683 83.1881 153.114 83.1562 153.167 83.0924C153.178 83.0392 153.183 82.9488 153.183 82.8212C153.183 82.3214 153.039 81.8695 152.752 81.4654C152.465 81.0613 152.05 80.8592 151.508 80.8592C150.976 80.8592 150.54 81.0719 150.2 81.4973C149.87 81.912 149.679 82.4703 149.626 83.1721ZM158.229 81.4813C159.154 80.5561 160 80.0935 160.765 80.0935C161.542 80.0935 162.148 80.3222 162.584 80.7795C163.03 81.2367 163.264 81.8376 163.286 82.5819L163.397 86.5219C163.408 86.8197 163.504 87.0323 163.684 87.16C163.865 87.2769 164.168 87.3354 164.594 87.3354C164.647 87.3886 164.673 87.4949 164.673 87.6544C164.673 87.8033 164.663 87.8884 164.641 87.9097L162.743 87.814L160.797 87.9097C160.765 87.8778 160.749 87.7927 160.749 87.6544C160.749 87.5056 160.781 87.3992 160.845 87.3354C161.249 87.3354 161.536 87.2769 161.706 87.16C161.887 87.0323 161.983 86.8197 161.994 86.5219L162.057 82.8691C162.068 82.3374 161.924 81.9067 161.627 81.577C161.329 81.2474 160.914 81.0825 160.382 81.0825C160 81.0825 159.601 81.242 159.186 81.5611C159.048 81.6674 158.878 81.811 158.676 81.9917C158.484 82.1725 158.367 82.2789 158.325 82.3108L158.452 86.5219C158.463 86.8197 158.553 87.0323 158.724 87.16C158.894 87.2769 159.181 87.3354 159.585 87.3354C159.638 87.3886 159.665 87.4949 159.665 87.6544C159.665 87.8033 159.654 87.8884 159.633 87.9097L157.798 87.814L155.773 87.9097C155.741 87.8778 155.725 87.7927 155.725 87.6544C155.725 87.5056 155.757 87.3992 155.82 87.3354C156.246 87.3354 156.554 87.2769 156.746 87.16C156.948 87.0323 157.049 86.8197 157.049 86.5219L157.097 82.0556C157.097 81.7578 156.996 81.5504 156.793 81.4335C156.602 81.3058 156.288 81.242 155.852 81.242C155.82 81.2101 155.804 81.1251 155.804 80.9868C155.804 80.8379 155.836 80.7316 155.9 80.6678C155.943 80.6678 156.044 80.6572 156.203 80.6359C156.363 80.6146 156.464 80.604 156.506 80.604C156.549 80.5934 156.629 80.5774 156.746 80.5561C156.873 80.5242 156.969 80.487 157.033 80.4445C157.245 80.3275 157.389 80.2318 157.463 80.1574C157.548 80.0723 157.66 80.0297 157.798 80.0297C157.937 80.0297 158.038 80.051 158.101 80.0935L158.229 81.4813ZM171.228 76.7916L173.158 76.6959C174.774 76.6959 176.029 77.2064 176.923 78.2272C177.826 79.2481 178.278 80.588 178.278 82.247C178.278 83.9059 177.816 85.2671 176.891 86.3305C175.966 87.3833 174.721 87.9097 173.158 87.9097L171.228 87.814L169.314 87.9097C169.282 87.8778 169.266 87.7874 169.266 87.6385C169.266 87.479 169.298 87.3673 169.362 87.3035C170.074 87.3035 170.43 87.027 170.43 86.4741L170.51 78.1156C170.51 77.8285 170.43 77.6211 170.271 77.4935C170.111 77.3659 169.835 77.3021 169.441 77.3021C169.378 77.2489 169.346 77.1426 169.346 76.9831C169.346 76.8129 169.356 76.7172 169.378 76.6959C169.378 76.6959 169.994 76.7278 171.228 76.7916ZM173.206 87.0164C174.269 87.0164 175.147 86.5857 175.838 85.7243C176.529 84.863 176.875 83.8687 176.875 82.7415C176.875 81.1782 176.513 79.9181 175.79 78.961C175.067 77.9933 173.993 77.5094 172.568 77.5094C172.238 77.5094 171.882 77.5413 171.499 77.6052L171.866 85.8201C171.887 86.2773 171.999 86.591 172.201 86.7612C172.403 86.9313 172.738 87.0164 173.206 87.0164ZM180.658 86.9526C180.105 86.1976 179.829 85.2405 179.829 84.0814C179.829 82.9222 180.105 81.9705 180.658 81.2261C181.222 80.4711 182.067 80.0935 183.194 80.0935C184.322 80.0935 185.178 80.4711 185.762 81.2261C186.358 81.9811 186.656 82.9329 186.656 84.0814C186.656 85.2299 186.358 86.1816 185.762 86.9366C185.178 87.6917 184.322 88.0692 183.194 88.0692C182.067 88.0692 181.222 87.697 180.658 86.9526ZM184.949 86.3464C185.183 85.8573 185.3 85.1501 185.3 84.2249C185.3 83.2998 185.114 82.5075 184.742 81.8482C184.38 81.1889 183.854 80.8592 183.162 80.8592C182.227 80.8592 181.631 81.2793 181.376 82.1194C181.248 82.566 181.184 83.1243 181.184 83.7942C181.184 84.8045 181.365 85.6286 181.727 86.2667C182.099 86.8941 182.663 87.2078 183.418 87.2078C184.173 87.2078 184.683 86.9207 184.949 86.3464ZM189.903 87.814L187.878 87.9097C187.846 87.8778 187.83 87.7927 187.83 87.6544C187.83 87.5056 187.862 87.3992 187.925 87.3354C188.351 87.3354 188.659 87.2769 188.851 87.16C189.053 87.0323 189.154 86.8197 189.154 86.5219L189.202 82.0556C189.202 81.7578 189.101 81.5504 188.898 81.4335C188.707 81.3058 188.393 81.242 187.957 81.242C187.925 81.2101 187.91 81.1251 187.91 80.9868C187.91 80.8379 187.941 80.7316 188.005 80.6678C188.048 80.6678 188.149 80.6572 188.308 80.6359C188.468 80.6146 188.569 80.604 188.611 80.604C188.654 80.5934 188.734 80.5774 188.851 80.5561C188.978 80.5242 189.074 80.487 189.138 80.4445C189.35 80.3275 189.494 80.2318 189.568 80.1574C189.654 80.0723 189.765 80.0297 189.903 80.0297C190.042 80.0297 190.143 80.051 190.206 80.0935L190.366 81.7525C190.557 81.3271 190.866 80.9443 191.291 80.604C191.727 80.2637 192.19 80.0935 192.679 80.0935C192.966 80.0935 193.205 80.1893 193.397 80.3807C193.599 80.5615 193.7 80.7848 193.7 81.0506C193.7 81.3058 193.625 81.5132 193.477 81.6727C193.328 81.8216 193.136 81.896 192.902 81.896C192.392 81.896 192.137 81.7153 192.137 81.3537C192.137 81.258 192.163 81.1729 192.216 81.0985C192.27 81.024 192.296 80.9709 192.296 80.939C192.296 80.9071 192.259 80.8911 192.184 80.8911C191.919 80.8911 191.557 81.1889 191.1 81.7844C190.653 82.3799 190.435 82.9222 190.446 83.4114L190.557 86.5219C190.568 86.8197 190.664 87.0323 190.845 87.16C191.036 87.2769 191.344 87.3354 191.77 87.3354C191.823 87.3886 191.849 87.4949 191.849 87.6544C191.849 87.8033 191.839 87.8884 191.818 87.9097L189.903 87.814ZM196.446 87.814L194.42 87.9097C194.388 87.8778 194.372 87.7927 194.372 87.6544C194.372 87.5056 194.404 87.3992 194.468 87.3354C194.904 87.3354 195.218 87.2769 195.409 87.16C195.601 87.0323 195.696 86.8197 195.696 86.5219L195.744 82.0556C195.744 81.7578 195.643 81.5504 195.441 81.4335C195.25 81.3058 194.936 81.242 194.5 81.242C194.468 81.2101 194.452 81.1251 194.452 80.9868C194.452 80.8379 194.484 80.7316 194.548 80.6678C194.59 80.6678 194.691 80.6572 194.851 80.6359C195.01 80.6146 195.111 80.604 195.154 80.604C195.196 80.5934 195.276 80.5774 195.393 80.5561C195.521 80.5242 195.616 80.487 195.68 80.4445C195.893 80.3275 196.037 80.2318 196.111 80.1574C196.196 80.0723 196.308 80.0297 196.446 80.0297C196.584 80.0297 196.685 80.051 196.749 80.0935L196.877 81.4813C197.6 80.8114 198.243 80.3913 198.807 80.2212C199.073 80.1361 199.338 80.0935 199.604 80.0935C200.136 80.0935 200.593 80.2265 200.976 80.4923C201.37 80.7475 201.657 81.1038 201.837 81.5611C202.816 80.5827 203.752 80.0935 204.645 80.0935C205.368 80.0935 205.948 80.3222 206.384 80.7795C206.82 81.2367 207.054 81.8376 207.085 82.5819L207.245 86.5219C207.256 86.8197 207.351 87.0323 207.532 87.16C207.713 87.2769 208.016 87.3354 208.441 87.3354C208.494 87.3886 208.521 87.4949 208.521 87.6544C208.521 87.8033 208.51 87.8884 208.489 87.9097L206.591 87.814L204.565 87.9097C204.533 87.8778 204.517 87.7927 204.517 87.6544C204.517 87.5056 204.549 87.3992 204.613 87.3354C205.049 87.3354 205.363 87.2769 205.554 87.16C205.746 87.0323 205.841 86.8197 205.841 86.5219L205.857 82.8691C205.857 82.3374 205.708 81.9067 205.411 81.577C205.113 81.2474 204.677 81.0825 204.103 81.0825C203.539 81.0825 202.848 81.4919 202.029 82.3108L202.156 86.5219C202.167 86.8197 202.263 87.0323 202.444 87.16C202.624 87.2769 202.927 87.3354 203.353 87.3354C203.406 87.3886 203.433 87.4949 203.433 87.6544C203.433 87.8033 203.422 87.8884 203.401 87.9097L201.502 87.814L199.477 87.9097C199.445 87.8778 199.429 87.7927 199.429 87.6544C199.429 87.5056 199.461 87.3992 199.525 87.3354C199.95 87.3354 200.258 87.2769 200.45 87.16C200.641 87.0323 200.742 86.8197 200.753 86.5219L200.817 82.8691C200.827 82.3374 200.684 81.9067 200.386 81.577C200.088 81.2474 199.673 81.0825 199.142 81.0825C198.929 81.0825 198.7 81.1357 198.456 81.242C198.222 81.3484 198.03 81.4547 197.882 81.5611C197.456 81.8801 197.153 82.13 196.972 82.3108L197.1 86.5219C197.111 86.8197 197.206 87.0323 197.387 87.16C197.578 87.2769 197.887 87.3354 198.312 87.3354C198.365 87.3886 198.392 87.4949 198.392 87.6544C198.392 87.8033 198.381 87.8884 198.36 87.9097L196.446 87.814ZM211.979 78.1475C211.979 78.4133 211.894 78.626 211.724 78.7855C211.554 78.9344 211.331 79.0089 211.054 79.0089C210.788 79.0089 210.576 78.9238 210.416 78.7536C210.257 78.5835 210.177 78.3708 210.177 78.1156C210.177 77.8497 210.257 77.6317 210.416 77.4616C210.576 77.2808 210.783 77.1904 211.038 77.1904C211.293 77.1904 211.511 77.2808 211.692 77.4616C211.884 77.6424 211.979 77.871 211.979 78.1475ZM211.262 87.814L209.236 87.9097C209.204 87.8778 209.188 87.7927 209.188 87.6544C209.188 87.5056 209.22 87.3992 209.284 87.3354C209.709 87.3354 210.017 87.2769 210.209 87.16C210.411 87.0323 210.512 86.8197 210.512 86.5219L210.528 82.1991C210.528 81.6568 210.086 81.3856 209.204 81.3856C209.172 81.3537 209.156 81.2686 209.156 81.1304C209.156 80.9815 209.188 80.8752 209.252 80.8114C209.581 80.8114 209.895 80.7741 210.193 80.6997C210.491 80.6146 210.687 80.5455 210.783 80.4923C210.889 80.4285 210.974 80.3647 211.038 80.3009C211.113 80.2265 211.219 80.1893 211.357 80.1893C211.495 80.1893 211.597 80.2105 211.66 80.2531L211.916 86.5219C211.926 86.8197 212.022 87.0323 212.203 87.16C212.394 87.2769 212.702 87.3354 213.128 87.3354C213.181 87.3886 213.208 87.4949 213.208 87.6544C213.208 87.8033 213.197 87.8884 213.176 87.9097L211.262 87.814ZM215.996 87.814L213.97 87.9097C213.938 87.8778 213.922 87.7927 213.922 87.6544C213.922 87.5056 213.954 87.3992 214.018 87.3354C214.443 87.3354 214.751 87.2769 214.943 87.16C215.145 87.0323 215.246 86.8197 215.246 86.5219L215.294 82.0556C215.294 81.7578 215.193 81.5504 214.991 81.4335C214.799 81.3058 214.486 81.242 214.05 81.242C214.018 81.2101 214.002 81.1251 214.002 80.9868C214.002 80.8379 214.034 80.7316 214.097 80.6678C214.14 80.6678 214.241 80.6572 214.4 80.6359C214.56 80.6146 214.661 80.604 214.704 80.604C214.746 80.5934 214.826 80.5774 214.943 80.5561C215.07 80.5242 215.166 80.487 215.23 80.4445C215.443 80.3275 215.586 80.2318 215.661 80.1574C215.746 80.0723 215.857 80.0297 215.996 80.0297C216.134 80.0297 216.235 80.051 216.299 80.0935L216.458 81.7525C216.65 81.3271 216.958 80.9443 217.383 80.604C217.819 80.2637 218.282 80.0935 218.771 80.0935C219.058 80.0935 219.297 80.1893 219.489 80.3807C219.691 80.5615 219.792 80.7848 219.792 81.0506C219.792 81.3058 219.718 81.5132 219.569 81.6727C219.42 81.8216 219.228 81.896 218.994 81.896C218.484 81.896 218.229 81.7153 218.229 81.3537C218.229 81.258 218.255 81.1729 218.309 81.0985C218.362 81.024 218.388 80.9709 218.388 80.939C218.388 80.9071 218.351 80.8911 218.277 80.8911C218.011 80.8911 217.649 81.1889 217.192 81.7844C216.745 82.3799 216.527 82.9222 216.538 83.4114L216.65 86.5219C216.66 86.8197 216.756 87.0323 216.937 87.16C217.128 87.2769 217.437 87.3354 217.862 87.3354C217.915 87.3886 217.942 87.4949 217.942 87.6544C217.942 87.8033 217.931 87.8884 217.91 87.9097L215.996 87.814Z" fill="black"/>
</svg>
